<svg width="20" height="16" viewBox="0 0 20 16" fill="none" xmlns="http://www.w3.org/2000/svg">
<path d="M9.80072 15.4445L18.9052 8.47339C18.9864 8.41109 19.0525 8.32903 19.0982 8.23399C19.1439 8.13895 19.1678 8.03365 19.168 7.92677L19.168 7.92517C19.1678 7.81788 19.1436 7.71219 19.0976 7.61689C19.0515 7.52159 18.9849 7.43942 18.9032 7.37722L9.79872 0.45101C9.70463 0.379323 9.59387 0.336819 9.47866 0.32818C9.36344 0.319541 9.24823 0.345102 9.14572 0.402048C9.04307 0.458613 8.95699 0.544394 8.89695 0.649947C8.83692 0.7555 8.80527 0.876733 8.80547 1.0003L8.80547 4.25993L0.628219 4.25966C0.54562 4.25963 0.463825 4.27702 0.38751 4.31084C0.311195 4.34466 0.241859 4.39425 0.183464 4.45677C0.125068 4.51929 0.0787619 4.59351 0.0471914 4.6752C0.015621 4.75688 -0.000595277 4.84443 -0.000530431 4.93283L-0.000280815 10.9638C-0.000313243 11.0522 0.0159412 11.1398 0.0475555 11.2215C0.0791698 11.3032 0.125522 11.3775 0.183963 11.44C0.242404 11.5025 0.311788 11.5521 0.388145 11.5859C0.464502 11.6197 0.546337 11.637 0.628969 11.637L8.80522 11.637L8.80522 14.8977C8.80522 15.1492 8.93772 15.3801 9.14697 15.4962C9.2498 15.5529 9.36528 15.5781 9.48065 15.569C9.59602 15.5599 9.70678 15.5168 9.80072 15.4445Z" fill="#BDBDBD"/>
</svg>
