<svg width="18" height="18" viewBox="0 0 18 18" fill="none" xmlns="http://www.w3.org/2000/svg">
<path d="M8.8494 16.3593C6.79577 16.3593 4.82625 15.555 3.37411 14.1233C1.92198 12.6915 1.10617 10.7497 1.10617 8.72497C1.10617 6.70021 1.92198 4.75839 3.37411 3.32667C4.82625 1.89495 6.79577 1.09062 8.8494 1.09062C10.903 1.09062 12.8725 1.89495 14.3247 3.32667C15.7768 4.75839 16.5926 6.70021 16.5926 8.72497C16.5926 10.7497 15.7768 12.6915 14.3247 14.1233C12.8725 15.555 10.903 16.3593 8.8494 16.3593ZM8.8494 17.4499C11.1964 17.4499 13.4473 16.5307 15.1069 14.8944C16.7664 13.2582 17.6988 11.039 17.6988 8.72497C17.6988 6.41096 16.7664 4.19173 15.1069 2.55548C13.4473 0.919235 11.1964 0 8.8494 0C6.50239 0 4.25151 0.919235 2.59193 2.55548C0.932345 4.19173 0 6.41096 0 8.72497C0 11.039 0.932345 13.2582 2.59193 14.8944C4.25151 16.5307 6.50239 17.4499 8.8494 17.4499Z" fill="#BDBDBD"/>
<path d="M12.1348 5.4204C12.127 5.42793 12.1196 5.43594 12.1127 5.44439L8.27098 10.2704L5.95576 7.98663C5.79849 7.84214 5.59047 7.76348 5.37554 7.76722C5.16061 7.77096 4.95554 7.85681 4.80354 8.00667C4.65154 8.15654 4.56447 8.35872 4.56068 8.57063C4.55688 8.78254 4.63666 8.98763 4.78321 9.14269L7.71015 12.0296C7.789 12.1072 7.88289 12.1683 7.98623 12.2094C8.08957 12.2504 8.20024 12.2705 8.31163 12.2685C8.42302 12.2664 8.53285 12.2423 8.63457 12.1975C8.7363 12.1527 8.82783 12.0882 8.90371 12.0077L13.3196 6.56555C13.4699 6.40995 13.5521 6.20226 13.5484 5.98738C13.5447 5.77249 13.4554 5.56768 13.2997 5.41723C13.1441 5.26677 12.9346 5.18276 12.7166 5.18335C12.4986 5.18395 12.2897 5.2691 12.1348 5.4204Z" fill="#BDBDBD"/>
</svg>
