<svg width="18" height="19" viewBox="0 0 18 19" fill="none" xmlns="http://www.w3.org/2000/svg">
<g clip-path="url(#clip0_314_6970)">
<path d="M8.8494 17.2801C6.79577 17.2801 4.82625 16.4709 3.37411 15.0304C1.92198 13.59 1.10617 11.6363 1.10617 9.59918C1.10617 7.56208 1.92198 5.6084 3.37411 4.16795C4.82625 2.7275 6.79577 1.91826 8.8494 1.91826C10.903 1.91826 12.8725 2.7275 14.3247 4.16795C15.7768 5.6084 16.5926 7.56208 16.5926 9.59918C16.5926 11.6363 15.7768 13.59 14.3247 15.0304C12.8725 16.4709 10.903 17.2801 8.8494 17.2801ZM8.8494 18.3774C11.1964 18.3774 13.4473 17.4525 15.1069 15.8063C16.7664 14.1601 17.6988 11.9273 17.6988 9.59918C17.6988 7.27106 16.7664 5.03829 15.1069 3.39206C13.4473 1.74583 11.1964 0.820984 8.8494 0.820984C6.50239 0.820984 4.25151 1.74583 2.59193 3.39206C0.932345 5.03829 0 7.27106 0 9.59918C0 11.9273 0.932345 14.1601 2.59193 15.8063C4.25151 17.4525 6.50239 18.3774 8.8494 18.3774Z" fill="#FD5631"/>
<path d="M12.1348 6.27444C12.127 6.28202 12.1196 6.29008 12.1127 6.29858L8.27098 11.154L5.95576 8.85633C5.79849 8.71096 5.59047 8.63183 5.37554 8.63559C5.16061 8.63935 4.95554 8.72572 4.80354 8.8765C4.65154 9.02728 4.56447 9.2307 4.56068 9.4439C4.55688 9.6571 4.63666 9.86344 4.78321 10.0194L7.71015 12.9239C7.789 13.002 7.88289 13.0635 7.98623 13.1048C8.08957 13.1461 8.20024 13.1663 8.31163 13.1643C8.42302 13.1622 8.53285 13.138 8.63457 13.0929C8.7363 13.0478 8.82783 12.9829 8.90371 12.902L13.3196 7.42658C13.4699 7.27003 13.5521 7.06108 13.5484 6.84488C13.5447 6.62869 13.4554 6.42263 13.2997 6.27125C13.1441 6.11988 12.9346 6.03536 12.7166 6.03595C12.4986 6.03655 12.2897 6.12222 12.1348 6.27444Z" fill="#FD5631"/>
</g>
<defs>
<clipPath id="clip0_314_6970">
<rect width="17.6988" height="17.5564" fill="white" transform="translate(0 0.820984)"/>
</clipPath>
</defs>
</svg>
