<svg width="16" height="16" viewBox="0 0 16 16" fill="none" xmlns="http://www.w3.org/2000/svg">
<path d="M0.320352 0.320352C0.747488 -0.106784 1.44001 -0.106784 1.86715 0.320352L7.65625 6.10945L13.4454 0.320352C13.8725 -0.106784 14.565 -0.106784 14.9921 0.320352C15.4193 0.747488 15.4193 1.44001 14.9921 1.86715L9.20305 7.65625L14.9921 13.4454C15.4193 13.8725 15.4193 14.565 14.9921 14.9921C14.565 15.4193 13.8725 15.4193 13.4454 14.9921L7.65625 9.20305L1.86715 14.9921C1.44001 15.4193 0.747488 15.4193 0.320352 14.9921C-0.106784 14.565 -0.106784 13.8725 0.320352 13.4454L6.10945 7.65625L0.320352 1.86715C-0.106784 1.44001 -0.106784 0.747488 0.320352 0.320352Z" fill="black"/>
</svg>
