<svg width="28" height="29" viewBox="0 0 28 29" fill="none" xmlns="http://www.w3.org/2000/svg">
<path d="M28 14.7593C28 22.4915 21.7322 28.7593 14 28.7593C6.2678 28.7593 0 22.4915 0 14.7593C0 7.02714 6.2678 0.759338 14 0.759338V3.55934C11.3183 3.55964 8.72581 4.52212 6.69361 6.27182C4.66142 8.02152 3.32446 10.4423 2.92576 13.0941C2.52706 15.746 3.09307 18.4529 4.52092 20.7228C5.94877 22.9927 8.14367 24.675 10.7067 25.4638C13.2697 26.2526 16.0307 26.0957 18.4878 25.0215C20.9449 23.9473 22.935 22.0271 24.0964 19.61C25.2578 17.1929 25.5134 14.4393 24.8167 11.8497C24.1201 9.26013 22.5174 7.00646 20.3 5.49834V9.15934H17.5V0.759338H25.9V3.55934H22.4C24.1396 4.86264 25.5514 6.55346 26.5235 8.49761C27.4955 10.4418 28.0011 12.5857 28 14.7593Z" fill="#555555"/>
</svg>
