<svg width="36" height="36" viewBox="0 0 36 36" fill="none" xmlns="http://www.w3.org/2000/svg">
<path d="M14.4707 17.5004L6.12906 25.8389L6.12899 25.839C5.92985 26.0381 5.77188 26.2745 5.66411 26.5347C5.55633 26.7949 5.50086 27.0738 5.50086 27.3554C5.50086 27.6371 5.55633 27.9159 5.66411 28.1761C5.77188 28.4363 5.92985 28.6727 6.12899 28.8719C6.32813 29.071 6.56455 29.229 6.82474 29.3368C7.08493 29.4445 7.36381 29.5 7.64543 29.5C7.92706 29.5 8.20594 29.4445 8.46613 29.3368C8.72632 29.229 8.96274 29.071 9.16188 28.8719L9.16194 28.8718L17.5004 20.5302L25.8389 28.8718L25.839 28.8719C26.0381 29.071 26.2745 29.229 26.5347 29.3368C26.7949 29.4445 27.0738 29.5 27.3554 29.5C27.6371 29.5 27.9159 29.4445 28.1761 29.3368C28.4363 29.229 28.6727 29.071 28.8719 28.8719C29.071 28.6727 29.229 28.4363 29.3368 28.1761C29.4445 27.9159 29.5 27.6371 29.5 27.3554C29.5 27.0738 29.4445 26.7949 29.3368 26.5347C29.229 26.2745 29.071 26.0381 28.8719 25.839L28.8718 25.8389L20.5302 17.5004L28.8718 9.16194L28.8719 9.16188C29.071 8.96274 29.229 8.72632 29.3368 8.46613C29.4445 8.20594 29.5 7.92706 29.5 7.64543C29.5 7.36381 29.4445 7.08493 29.3368 6.82474C29.229 6.56455 29.071 6.32813 28.8719 6.12899C28.6727 5.92985 28.4363 5.77188 28.1761 5.66411C27.9159 5.55633 27.6371 5.50086 27.3554 5.50086C27.0738 5.50086 26.7949 5.55633 26.5347 5.66411C26.2745 5.77188 26.0381 5.92985 25.839 6.12899L25.8389 6.12906L17.5004 14.4707L9.16232 6.12944C9.16223 6.12934 9.16214 6.12925 9.16204 6.12915C9.16201 6.12912 9.16198 6.12909 9.16194 6.12906C8.963 5.92971 8.72671 5.77155 8.46658 5.66361C8.20629 5.55559 7.92725 5.5 7.64543 5.5C7.36362 5.5 7.08458 5.55559 6.82428 5.66361C6.56399 5.77162 6.32756 5.92992 6.12854 6.12944L6.48254 6.48254L6.12944 6.12854C5.92992 6.32756 5.77162 6.56399 5.66361 6.82428C5.55559 7.08458 5.5 7.36362 5.5 7.64543C5.5 7.92725 5.55559 8.20629 5.66361 8.46658C5.77155 8.72671 5.92971 8.963 6.12906 9.16194C6.12909 9.16198 6.12912 9.16201 6.12915 9.16204C6.12925 9.16214 6.12934 9.16223 6.12944 9.16232L14.4707 17.5004Z" fill="white" stroke="white"/>
</svg>
