<svg width="20" height="20" viewBox="0 0 20 20" fill="none" xmlns="http://www.w3.org/2000/svg">
<g clip-path="url(#clip0_373_2215)">
<path d="M14.1093 12.4295C15.2728 10.8418 15.794 8.87333 15.5684 6.9179C15.3429 4.96246 14.3874 3.16429 12.893 1.88312C11.3986 0.601945 9.4756 -0.0677345 7.50866 0.00805498C5.54173 0.0838445 3.67594 0.899514 2.28457 2.29188C0.893201 3.68424 0.0788667 5.55061 0.0044847 7.5176C-0.0698973 9.48459 0.601158 11.4071 1.8834 12.9006C3.16564 14.3941 4.9645 15.3483 6.92009 15.5724C8.87569 15.7966 10.8438 15.274 12.4307 14.1094H12.4295C12.4647 14.1574 12.504 14.2035 12.5472 14.2476L17.1734 18.8738C17.3987 19.0992 17.7044 19.226 18.0231 19.2261C18.3419 19.2262 18.6476 19.0997 18.8731 18.8744C19.0986 18.6491 19.2253 18.3434 19.2254 18.0247C19.2255 17.7059 19.099 17.4002 18.8737 17.1747L14.2475 12.5485C14.2046 12.505 14.1584 12.466 14.1093 12.4295ZM14.4193 7.81052C14.4193 8.67841 14.2484 9.5378 13.9163 10.3396C13.5841 11.1414 13.0973 11.87 12.4836 12.4837C11.87 13.0974 11.1414 13.5842 10.3396 13.9163C9.53774 14.2484 8.67835 14.4194 7.81046 14.4194C6.94257 14.4194 6.08318 14.2484 5.28136 13.9163C4.47953 13.5842 3.75098 13.0974 3.13729 12.4837C2.5236 11.87 2.03679 11.1414 1.70466 10.3396C1.37254 9.5378 1.20159 8.67841 1.20159 7.81052C1.20159 6.05773 1.89788 4.37674 3.13729 3.13734C4.37669 1.89794 6.05768 1.20165 7.81046 1.20165C9.56324 1.20165 11.2442 1.89794 12.4836 3.13734C13.723 4.37674 14.4193 6.05773 14.4193 7.81052Z" fill="#777777"/>
</g>
<defs>
<clipPath id="clip0_373_2215">
<rect width="19.2258" height="19.2258" fill="white"/>
</clipPath>
</defs>
</svg>
