<svg width="22" height="28" viewBox="0 0 22 28" fill="none" xmlns="http://www.w3.org/2000/svg">
<path d="M10.8005 0C4.84542 0 0.000118855 5.00877 0.000118855 11.1577C-0.0390324 20.1523 9.60702 27.3522 10.0174 27.6522C10.2461 27.8205 10.5198 27.9109 10.8005 27.9109C11.0811 27.9109 11.3548 27.8205 11.5835 27.6522C11.9939 27.3522 21.6399 20.1523 21.6008 11.1647C21.6008 5.00877 16.7555 0 10.8005 0ZM10.8005 24.7508C8.62553 22.9253 2.67185 17.3625 2.7002 11.1647C2.7002 6.54671 6.33316 2.79118 10.8005 2.79118C15.2677 2.79118 18.9007 6.54671 18.9007 11.1717C18.9291 17.3639 12.9767 22.9267 10.8005 24.7508Z" fill="#333333"/>
<path d="M10.8005 0C4.84542 0 0.000118855 5.00877 0.000118855 11.1577C-0.0390324 20.1523 9.60702 27.3522 10.0174 27.6522C10.2461 27.8205 10.5198 27.9109 10.8005 27.9109C11.0811 27.9109 11.3548 27.8205 11.5835 27.6522C11.9939 27.3522 21.6399 20.1523 21.6008 11.1647C21.6008 5.00877 16.7555 0 10.8005 0ZM10.8005 24.7508C8.62553 22.9253 2.67185 17.3625 2.7002 11.1647C2.7002 6.54671 6.33316 2.79118 10.8005 2.79118C15.2677 2.79118 18.9007 6.54671 18.9007 11.1717C18.9291 17.3639 12.9767 22.9267 10.8005 24.7508Z" fill="black" fill-opacity="0.2"/>
<path d="M10.8005 0C4.84542 0 0.000118855 5.00877 0.000118855 11.1577C-0.0390324 20.1523 9.60702 27.3522 10.0174 27.6522C10.2461 27.8205 10.5198 27.9109 10.8005 27.9109C11.0811 27.9109 11.3548 27.8205 11.5835 27.6522C11.9939 27.3522 21.6399 20.1523 21.6008 11.1647C21.6008 5.00877 16.7555 0 10.8005 0ZM10.8005 24.7508C8.62553 22.9253 2.67185 17.3625 2.7002 11.1647C2.7002 6.54671 6.33316 2.79118 10.8005 2.79118C15.2677 2.79118 18.9007 6.54671 18.9007 11.1717C18.9291 17.3639 12.9767 22.9267 10.8005 24.7508Z" fill="black" fill-opacity="0.2"/>
<path d="M10.8005 0C4.84542 0 0.000118855 5.00877 0.000118855 11.1577C-0.0390324 20.1523 9.60702 27.3522 10.0174 27.6522C10.2461 27.8205 10.5198 27.9109 10.8005 27.9109C11.0811 27.9109 11.3548 27.8205 11.5835 27.6522C11.9939 27.3522 21.6399 20.1523 21.6008 11.1647C21.6008 5.00877 16.7555 0 10.8005 0ZM10.8005 24.7508C8.62553 22.9253 2.67185 17.3625 2.7002 11.1647C2.7002 6.54671 6.33316 2.79118 10.8005 2.79118C15.2677 2.79118 18.9007 6.54671 18.9007 11.1717C18.9291 17.3639 12.9767 22.9267 10.8005 24.7508Z" fill="black" fill-opacity="0.2"/>
<path d="M9.4504 13.3781L6.35476 10.178L4.4458 12.1514L9.4504 17.3248L17.1551 9.3602L15.2461 7.38684L9.4504 13.3781Z" fill="#333333"/>
<path d="M9.4504 13.3781L6.35476 10.178L4.4458 12.1514L9.4504 17.3248L17.1551 9.3602L15.2461 7.38684L9.4504 13.3781Z" fill="black" fill-opacity="0.2"/>
<path d="M9.4504 13.3781L6.35476 10.178L4.4458 12.1514L9.4504 17.3248L17.1551 9.3602L15.2461 7.38684L9.4504 13.3781Z" fill="black" fill-opacity="0.2"/>
<path d="M9.4504 13.3781L6.35476 10.178L4.4458 12.1514L9.4504 17.3248L17.1551 9.3602L15.2461 7.38684L9.4504 13.3781Z" fill="black" fill-opacity="0.2"/>
</svg>
