<svg width="32" height="34" viewBox="0 0 32 34" fill="none" xmlns="http://www.w3.org/2000/svg">
<path d="M0 15.1936C0 16.9886 0.508916 18.5752 1.51133 19.9856C2.51374 21.38 3.82458 22.3416 5.44386 22.8544C5.58265 22.8865 5.70602 22.8384 5.81398 22.7262L7.60289 20.4344C6.23036 20.4344 5.05831 19.9215 4.08675 18.8958C3.11518 17.87 2.62169 16.636 2.62169 15.1936C2.62169 13.8473 3.05349 12.6613 3.91711 11.6676C4.78072 10.6739 5.86024 10.113 7.15566 10.0008L7.97301 9.88863C8.14265 9.88863 8.21976 9.82452 8.21976 9.68028L8.34313 8.7988C8.52819 7.03583 9.25301 5.57738 10.4867 4.42344C11.7205 3.2695 13.1855 2.69253 14.8819 2.69253C16.5783 2.69253 18.0588 3.2695 19.308 4.43947C20.5725 5.60943 21.2665 7.06788 21.4207 8.7988L21.5287 9.72836C21.5595 9.90466 21.6829 10.0008 21.868 10.0008H24.3663C25.7542 10.0008 26.9417 10.5137 27.9133 11.5234C28.8848 12.5331 29.3783 13.7511 29.3783 15.1936C29.3783 16.5238 28.9465 17.6938 28.0829 18.6874C27.2193 19.6811 26.1552 20.2581 24.8906 20.4183C24.7055 20.4183 24.4588 20.4504 24.1349 20.5145C23.8419 20.5465 23.626 20.6587 23.5027 20.8831L19.8631 25.3546C19.7546 25.4946 19.6763 25.6572 19.6337 25.8315C19.5912 26.0057 19.5852 26.1875 19.6164 26.3643C19.6627 26.749 19.8323 27.0535 20.0945 27.2779C20.2641 27.4702 20.5417 27.5824 20.9581 27.5824C21.359 27.5824 21.6829 27.3901 21.8988 27.0214L25.1682 23.1109C27.0805 22.9025 28.6998 22.0531 30.026 20.5305C31.3523 19.008 32 17.229 32 15.1936C32 14.1197 31.7995 13.078 31.3986 12.1003C31.0192 11.1566 30.4696 10.2971 29.7793 9.56809C29.0778 8.85069 28.2508 8.27947 27.3427 7.88526C26.4014 7.46976 25.3889 7.25712 24.3663 7.26021H23.8728C23.3639 5.14465 22.2689 3.39771 20.6034 2.03542C18.9378 0.673133 17.0255 0 14.8665 0C13.4323 0 12.0752 0.32054 10.8106 0.961618C9.54603 1.6027 8.48193 2.48418 7.60289 3.62209C6.72386 4.76 6.15325 6.05819 5.86024 7.50061C4.13301 7.90129 2.71422 8.81482 1.61928 10.2572C0.539759 11.6836 0 13.3344 0 15.1936ZM5.21253 28.0472C5.21253 28.1433 5.24337 28.3036 5.30506 28.528C5.44386 28.8645 5.65976 29.1049 5.98361 29.2332C6.32289 29.3934 6.66217 29.4095 7.01687 29.2652C7.17868 29.2062 7.32607 29.1111 7.44864 28.9865C7.57121 28.8619 7.66598 28.7108 7.72627 28.544C7.88048 28.1914 7.8959 27.8548 7.75711 27.5022C7.69585 27.3396 7.60034 27.1933 7.47759 27.0741C7.35483 26.9548 7.20795 26.8657 7.04771 26.8131C6.89483 26.7274 6.72532 26.6785 6.55178 26.6702C6.37825 26.6619 6.20514 26.6943 6.0453 26.765C5.88484 26.8353 5.73947 26.9381 5.61766 27.0675C5.49586 27.1968 5.40008 27.35 5.3359 27.5183C5.25363 27.6814 5.21126 27.863 5.21253 28.0472ZM8.06554 24.1366V24.2969C8.09639 24.6655 8.2506 24.954 8.52819 25.1944C8.88289 25.4027 9.19133 25.4989 9.48434 25.4989C9.82362 25.4989 10.1475 25.3226 10.4251 24.97L14.0029 20.5305C14.2188 20.2581 14.3267 19.9055 14.3113 19.4727C14.2788 19.1421 14.1239 18.8376 13.8795 18.6233C13.6328 18.3989 13.3706 18.2707 13.0776 18.2707C12.9851 18.2707 12.9234 18.2707 12.8617 18.2868C12.507 18.3509 12.214 18.5272 11.9981 18.8156L8.35855 23.2551C8.15807 23.5115 8.06554 23.8 8.06554 24.1366ZM9.25301 31.7013C9.25301 31.8936 9.29928 32.0699 9.37639 32.2142C9.49976 32.5507 9.73108 32.8072 10.0549 32.9674C10.2246 33.0476 10.3942 33.0796 10.5639 33.0796C10.7489 33.0796 10.9186 33.0476 11.0419 32.9674C11.3966 32.8232 11.6434 32.5988 11.7667 32.3103C11.921 31.9577 11.9364 31.6051 11.7976 31.2365C11.746 31.0655 11.6562 30.9096 11.5356 30.7815C11.415 30.6534 11.267 30.5567 11.1036 30.4993C10.9433 30.4186 10.7683 30.3741 10.5903 30.3685C10.4122 30.363 10.235 30.3966 10.0704 30.4672C9.71566 30.6115 9.48434 30.8519 9.37639 31.1884C9.28386 31.3327 9.25301 31.509 9.25301 31.7013ZM11.8284 27.935V28.1113C11.8593 28.4639 12.0289 28.7523 12.3065 28.9928C12.5841 29.2332 12.8771 29.3453 13.1547 29.3453C13.5094 29.3453 13.8178 29.169 14.1263 28.8165L20.8347 20.4183C21.0043 20.226 21.0969 19.9375 21.0969 19.5849V19.3926C21.066 19.024 20.9118 18.7515 20.6805 18.5432C20.4492 18.3348 20.1716 18.2226 19.8786 18.2226H19.6781C19.3234 18.2387 19.0304 18.415 18.8299 18.7195L12.1214 27.0535C11.9055 27.342 11.8284 27.6305 11.8284 27.935ZM17.2414 29.7781C17.2414 29.9223 17.2723 30.0826 17.334 30.2589C17.4728 30.6115 17.7041 30.8679 18.0434 31.0121C18.2593 31.0763 18.4135 31.1083 18.5214 31.1083C18.7374 31.1083 18.9224 31.0602 19.0458 30.9801C19.3851 30.8359 19.6318 30.6115 19.7552 30.307C19.9094 30.0345 19.9248 29.6819 19.786 29.2332C19.7272 29.0725 19.6363 28.9266 19.5194 28.8051C19.4024 28.6835 19.2621 28.5891 19.1075 28.528L18.5523 28.3837C18.4135 28.4158 18.2593 28.4478 18.0588 28.4959C17.7195 28.6241 17.4882 28.8645 17.3648 29.2011C17.2877 29.4095 17.2414 29.6018 17.2414 29.7781Z" fill="#777777"/>
</svg>
