<svg width="36" height="36" viewBox="0 0 36 36" fill="none" xmlns="http://www.w3.org/2000/svg">
<path d="M18 3.37502C14.3696 3.37502 11.2016 5.91527 10.3534 9.38702C9.65925 9.65766 9.02527 10.0624 8.48767 10.5782C7.95007 11.094 7.51939 11.7107 7.22025 12.393C3.28725 12.1028 0 15.2494 0 19.125C0 22.8476 3.02737 25.875 6.75 25.875V23.625C4.26713 23.625 2.25 21.6079 2.25 19.125C2.25 16.6421 4.26713 14.625 6.75 14.625C7.06163 14.625 7.38675 14.6644 7.74337 14.7431L8.84138 14.994L9.08888 13.8915C9.22812 13.2773 9.53645 12.7143 9.97901 12.2661C10.4216 11.818 10.9807 11.5027 11.5931 11.3558L12.3356 11.1803L12.4459 10.4243C12.8453 7.68602 15.2359 5.62502 18 5.62502C19.0412 5.62351 20.0622 5.91219 20.9485 6.45867C21.8348 7.00514 22.5513 7.78778 23.0175 8.71877L23.4619 9.59739L24.3945 9.27227C24.921 9.09227 25.4048 9.00002 25.875 9.00002C28.3579 9.00002 30.375 11.0171 30.375 13.5C30.375 13.545 30.366 13.5833 30.357 13.6238L30.3345 13.8555L30.2648 14.6655L31.0117 14.985C31.8247 15.3293 32.5181 15.9057 33.0052 16.6421C33.4922 17.3785 33.7513 18.2421 33.75 19.125C33.75 21.6079 31.7329 23.625 29.25 23.625H26.3891C26.6839 23.9505 26.943 24.3023 27.1665 24.6803C27.3923 25.0575 27.5798 25.4558 27.729 25.875H29.25C32.9726 25.875 36 22.851 36 19.125C36.0003 17.939 35.6881 16.7738 35.0948 15.7468C34.5015 14.7198 33.6481 13.8673 32.6205 13.275C32.5593 11.5258 31.8222 9.86847 30.5642 8.65156C29.3062 7.43466 27.6253 6.75303 25.875 6.75002C25.4363 6.75002 25.0009 6.79839 24.5565 6.89064C23.8402 5.80759 22.8661 4.91938 21.7217 4.30576C20.5774 3.69214 19.2985 3.37232 18 3.37502ZM17.4375 13.5C16.1584 13.5 15.0075 14.1188 14.2909 15.0728L16.0886 16.4228C16.2453 16.2131 16.4489 16.043 16.6832 15.9262C16.9174 15.8094 17.1758 15.7491 17.4375 15.75C18.3825 15.75 19.125 16.4925 19.125 17.4375C19.125 18.3825 18.3825 19.125 17.4375 19.125H10.125V21.375H17.4375C19.5998 21.375 21.375 19.5998 21.375 17.4375C21.375 15.2753 19.5998 13.5 17.4375 13.5ZM9 23.625V25.875H12.375C13.0118 25.875 13.5 26.3633 13.5 27C13.5 27.6368 13.0118 28.125 12.375 28.125C12.1776 28.1267 11.9834 28.0755 11.8127 27.9765C11.6419 27.8776 11.5008 27.7346 11.4041 27.5625L9.45787 28.701C9.75702 29.2092 10.1833 29.6308 10.6948 29.9243C11.2062 30.2178 11.7853 30.3731 12.375 30.375C14.2256 30.375 15.75 28.8506 15.75 27C15.7441 26.6157 15.6725 26.2352 15.5385 25.875H21.375C22.6316 25.875 23.625 26.8684 23.625 28.125C23.625 29.3816 22.6316 30.375 21.375 30.375C20.9091 30.3751 20.4546 30.2306 20.0744 29.9614C19.6941 29.6921 19.4068 29.3115 19.2521 28.872L17.1304 29.619C17.4397 30.4978 18.0141 31.2589 18.7744 31.7974C19.5347 32.3358 20.4434 32.625 21.375 32.625C23.85 32.625 25.875 30.6 25.875 28.125C25.875 25.65 23.85 23.625 21.375 23.625H9Z" fill="#777777"/>
</svg>
