<svg width="40" height="40" viewBox="0 0 40 40" fill="none" xmlns="http://www.w3.org/2000/svg">
<g clip-path="url(#clip0_365_2061)">
<path d="M26.5525 1.2875C21.6175 0.05 18.3825 0.05 13.45 1.2875C11.14 1.8625 8.495 3.2025 6.5 4.3375C3.915 5.805 2.5 8.58 2.5 11.455V33.75C2.5 35.4076 3.15848 36.9973 4.33058 38.1694C5.50269 39.3415 7.0924 40 8.75 40H31.25C32.9076 40 34.4973 39.3415 35.6694 38.1694C36.8415 36.9973 37.5 35.4076 37.5 33.75V11.4575C37.5 8.5825 36.0875 5.8075 33.5 4.335C31.5075 3.2025 28.8625 1.8675 26.5525 1.2875ZM16.25 5H23.75C24.0815 5 24.3995 5.1317 24.6339 5.36612C24.8683 5.60054 25 5.91848 25 6.25C25 6.58152 24.8683 6.89946 24.6339 7.13388C24.3995 7.3683 24.0815 7.5 23.75 7.5H16.25C15.9185 7.5 15.6005 7.3683 15.3661 7.13388C15.1317 6.89946 15 6.58152 15 6.25C15 5.91848 15.1317 5.60054 15.3661 5.36612C15.6005 5.1317 15.9185 5 16.25 5ZM11.25 10H28.75C29.7446 10 30.6984 10.3951 31.4017 11.0983C32.1049 11.8016 32.5 12.7554 32.5 13.75V18.75C32.5 19.7446 32.1049 20.6984 31.4017 21.4016C30.6984 22.1049 29.7446 22.5 28.75 22.5H11.25C10.2554 22.5 9.30161 22.1049 8.59835 21.4016C7.89509 20.6984 7.5 19.7446 7.5 18.75V13.75C7.5 12.7554 7.89509 11.8016 8.59835 11.0983C9.30161 10.3951 10.2554 10 11.25 10ZM12.5 32.5C12.5 33.163 12.2366 33.7989 11.7678 34.2678C11.2989 34.7366 10.663 35 10 35C9.33696 35 8.70107 34.7366 8.23223 34.2678C7.76339 33.7989 7.5 33.163 7.5 32.5C7.5 31.837 7.76339 31.2011 8.23223 30.7322C8.70107 30.2634 9.33696 30 10 30C10.663 30 11.2989 30.2634 11.7678 30.7322C12.2366 31.2011 12.5 31.837 12.5 32.5ZM12.5 32.5C12.5 31.837 12.7634 31.2011 13.2322 30.7322C13.7011 30.2634 14.337 30 15 30C15.663 30 16.2989 30.2634 16.7678 30.7322C17.2366 31.2011 17.5 31.837 17.5 32.5C17.5 33.163 17.2366 33.7989 16.7678 34.2678C16.2989 34.7366 15.663 35 15 35C14.337 35 13.7011 34.7366 13.2322 34.2678C12.7634 33.7989 12.5 33.163 12.5 32.5ZM32.5 32.5C32.5 33.163 32.2366 33.7989 31.7678 34.2678C31.2989 34.7366 30.663 35 30 35C29.337 35 28.7011 34.7366 28.2322 34.2678C27.7634 33.7989 27.5 33.163 27.5 32.5C27.5 31.837 27.7634 31.2011 28.2322 30.7322C28.7011 30.2634 29.337 30 30 30C30.663 30 31.2989 30.2634 31.7678 30.7322C32.2366 31.2011 32.5 31.837 32.5 32.5ZM25 30C25.663 30 26.2989 30.2634 26.7678 30.7322C27.2366 31.2011 27.5 31.837 27.5 32.5C27.5 33.163 27.2366 33.7989 26.7678 34.2678C26.2989 34.7366 25.663 35 25 35C24.337 35 23.7011 34.7366 23.2322 34.2678C22.7634 33.7989 22.5 33.163 22.5 32.5C22.5 31.837 22.7634 31.2011 23.2322 30.7322C23.7011 30.2634 24.337 30 25 30ZM10 13.75C10 13.4185 10.1317 13.1005 10.3661 12.8661C10.6005 12.6317 10.9185 12.5 11.25 12.5H18.75V20H11.25C10.9185 20 10.6005 19.8683 10.3661 19.6339C10.1317 19.3995 10 19.0815 10 18.75V13.75ZM21.25 20V12.5H28.75C29.0815 12.5 29.3995 12.6317 29.6339 12.8661C29.8683 13.1005 30 13.4185 30 13.75V18.75C30 19.0815 29.8683 19.3995 29.6339 19.6339C29.3995 19.8683 29.0815 20 28.75 20H21.25Z" fill="#284327"/>
</g>
<defs>
<clipPath id="clip0_365_2061">
<rect width="40" height="39.6648" fill="white"/>
</clipPath>
</defs>
</svg>
