<svg width="40" height="40" viewBox="0 0 40 40" fill="none" xmlns="http://www.w3.org/2000/svg">
<g clip-path="url(#clip0_365_2089)">
<g clip-path="url(#clip1_365_2089)">
<path d="M6.29994 8.7875C6.7822 7.6625 7.58418 6.70387 8.60636 6.03056C9.62854 5.35726 10.8259 4.99891 12.0499 5H27.9549C30.4549 5 32.7149 6.49 33.6999 8.7875L35.6799 13.4075C35.8674 13.845 36.2049 14.205 36.6299 14.4175C37.8799 15.0425 38.7674 16.205 39.0424 17.5725L39.8799 21.77C39.9633 22.1733 40.0041 22.5817 40.0024 22.995V24.0275C40.0024 26.0625 39.0274 27.885 37.5024 29.02V33.75C37.5024 34.0815 37.3707 34.3995 37.1363 34.6339C36.9019 34.8683 36.584 35 36.2524 35H31.2524C30.9209 35 30.603 34.8683 30.3686 34.6339C30.1341 34.3995 30.0024 34.0815 30.0024 33.75V30.405C26.7724 30.525 23.1399 30.625 20.0024 30.625C16.8649 30.625 13.2324 30.525 10.0024 30.405V33.75C10.0024 34.0815 9.87075 34.3995 9.63632 34.6339C9.40191 34.8683 9.08396 35 8.75244 35H3.75244C3.42092 35 3.10298 34.8683 2.86856 34.6339C2.63414 34.3995 2.50244 34.0815 2.50244 33.75V29.02C0.977441 27.885 0.00244141 26.0625 0.00244141 24.0275V22.995C0.00286098 22.5836 0.0438933 22.1733 0.124941 21.77L0.962441 17.57C1.23744 16.205 2.12494 15.04 3.37244 14.4175C3.80035 14.2054 4.13822 13.8471 4.32494 13.4075L6.30494 8.7875H6.29994ZM7.49994 25C8.16298 25 8.79887 24.7366 9.26771 24.2678C9.73655 23.7989 9.99994 23.163 9.99994 22.5C9.99994 21.837 9.73655 21.2011 9.26771 20.7322C8.79887 20.2634 8.16298 20 7.49994 20C6.8369 20 6.20102 20.2634 5.73217 20.7322C5.26333 21.2011 4.99994 21.837 4.99994 22.5C4.99994 23.163 5.26333 23.7989 5.73217 24.2678C6.20102 24.7366 6.8369 25 7.49994 25ZM32.4999 25C33.163 25 33.7989 24.7366 34.2677 24.2678C34.7365 23.7989 34.9999 23.163 34.9999 22.5C34.9999 21.837 34.7365 21.2011 34.2677 20.7322C33.7989 20.2634 33.163 20 32.4999 20C31.8369 20 31.201 20.2634 30.7322 20.7322C30.2633 21.2011 29.9999 21.837 29.9999 22.5C29.9999 23.163 30.2633 23.7989 30.7322 24.2678C31.201 24.7366 31.8369 25 32.4999 25ZM14.9999 20C14.3369 20 13.701 20.2634 13.2322 20.7322C12.7633 21.2011 12.4999 21.837 12.4999 22.5C12.4999 23.163 12.7633 23.7989 13.2322 24.2678C13.701 24.7366 14.3369 25 14.9999 25H24.9999C25.663 25 26.2989 24.7366 26.7677 24.2678C27.2365 23.7989 27.4999 23.163 27.4999 22.5C27.4999 21.837 27.2365 21.2011 26.7677 20.7322C26.2989 20.2634 25.663 20 24.9999 20H14.9999ZM7.26494 12.9725C7.16722 13.1741 7.12436 13.398 7.14069 13.6214C7.15701 13.8449 7.23193 14.0601 7.35791 14.2454C7.48389 14.4307 7.65648 14.5795 7.85829 14.6769C8.0601 14.7743 8.284 14.8167 8.50744 14.8C10.7824 14.6175 16.8824 14.375 19.9999 14.375C23.1174 14.375 29.2199 14.6175 31.4924 14.8C31.7159 14.8167 31.9398 14.7743 32.1416 14.6769C32.3434 14.5795 32.516 14.4307 32.642 14.2454C32.7679 14.0601 32.8429 13.8449 32.8592 13.6214C32.8755 13.398 32.8327 13.1741 32.7349 12.9725L30.3449 8.19C30.241 7.98264 30.0815 7.80827 29.8841 7.68641C29.6868 7.56455 29.4594 7.50001 29.2274 7.5H10.7724C10.5405 7.50001 10.3131 7.56455 10.1158 7.68641C9.91841 7.80827 9.75885 7.98264 9.65494 8.19L7.26494 12.9725Z" fill="#284327"/>
</g>
</g>
<defs>
<clipPath id="clip0_365_2089">
<rect width="40" height="39.6648" fill="white"/>
</clipPath>
<clipPath id="clip1_365_2089">
<rect width="40" height="40" fill="white"/>
</clipPath>
</defs>
</svg>
