<svg width="41" height="40" viewBox="0 0 41 40" fill="none" xmlns="http://www.w3.org/2000/svg">
<g clip-path="url(#clip0_365_2069)">
<path d="M40.3509 17.3535C40.3509 18.011 40.0852 18.6416 39.6122 19.1065C39.1393 19.5714 38.4978 19.8326 37.8289 19.8326V28.5093C37.8289 30.5371 36.8378 32.3369 35.307 33.4674V38.4254C35.307 38.7542 35.1742 39.0695 34.9377 39.3019C34.7012 39.5344 34.3805 39.665 34.0461 39.665H29.0022C28.6678 39.665 28.347 39.5344 28.1106 39.3019C27.8741 39.0695 27.7412 38.7542 27.7412 38.4254V34.7069H12.6096V38.4254C12.6096 38.7542 12.4768 39.0695 12.2403 39.3019C12.0038 39.5344 11.6831 39.665 11.3487 39.665H6.30482C5.9704 39.665 5.64966 39.5344 5.41319 39.3019C5.17671 39.0695 5.04386 38.7542 5.04386 38.4254V33.4674C4.26083 32.8901 3.62528 32.1415 3.18755 31.2809C2.74982 30.4203 2.52193 29.4714 2.52193 28.5093V19.8326C1.85307 19.8326 1.21161 19.5714 0.738656 19.1065C0.265703 18.6416 0 18.011 0 17.3535V12.3954C0 11.738 0.265703 11.1074 0.738656 10.6425C1.21161 10.1776 1.85307 9.9164 2.52193 9.9164V6.5449C2.52193 3.59979 4.65296 1.01166 7.72719 0.664595C11.8607 0.214003 16.0166 -0.00780854 20.1754 0.000209815C25.4715 0.000209815 29.7386 0.33736 32.6237 0.664595C35.6979 1.01166 37.8289 3.59979 37.8289 6.5449V9.9164C38.4978 9.9164 39.1393 10.1776 39.6122 10.6425C40.0852 11.1074 40.3509 11.738 40.3509 12.3954V17.3535ZM8.95789 7.98274C12.685 7.6106 16.4292 7.42856 20.1754 7.43735C24.8082 7.43735 28.6315 7.70261 31.393 7.98274C31.7192 8.00534 32.0416 7.90247 32.2921 7.69585C32.5427 7.48922 32.7017 7.195 32.7357 6.87527C32.7698 6.55555 32.6761 6.23533 32.4745 5.9822C32.2729 5.72907 31.9792 5.56284 31.6553 5.51857C27.8411 5.137 24.0093 4.94999 20.1754 4.9583C15.4443 4.9583 11.5353 5.22852 8.69561 5.51857C8.52684 5.53026 8.36219 5.57522 8.21147 5.65077C8.06074 5.72631 7.92702 5.83091 7.81828 5.95831C7.70953 6.08572 7.62798 6.23333 7.57847 6.39237C7.52897 6.5514 7.51254 6.7186 7.53014 6.88401C7.54775 7.04942 7.59904 7.20965 7.68095 7.35517C7.76287 7.50069 7.87374 7.62852 8.00696 7.73104C8.14018 7.83356 8.29303 7.90867 8.4564 7.95192C8.61977 7.99516 8.79032 8.00564 8.95789 7.98274ZM20.1754 9.9164C15.4443 9.9164 11.5353 10.1866 8.69561 10.4767C8.3857 10.5085 8.09877 10.652 7.89014 10.8796C7.68151 11.1071 7.56597 11.4025 7.56579 11.7088V20.5193C7.56597 20.8256 7.68151 21.121 7.89014 21.3485C8.09877 21.576 8.3857 21.7195 8.69561 21.7514C11.5353 22.0414 15.4443 22.3116 20.1754 22.3116C24.9066 22.3116 28.8156 22.0414 31.6553 21.7514C31.9652 21.7195 32.2521 21.576 32.4607 21.3485C32.6694 21.121 32.7849 20.8256 32.7851 20.5193V11.7088C32.7849 11.4025 32.6694 11.1071 32.4607 10.8796C32.2521 10.652 31.9652 10.5085 31.6553 10.4767C27.8411 10.0951 24.0093 9.90808 20.1754 9.9164ZM12.6096 27.2697C12.6096 26.6122 12.3439 25.9817 11.871 25.5168C11.398 25.0519 10.7566 24.7907 10.0877 24.7907C9.41886 24.7907 8.7774 25.0519 8.30445 25.5168C7.83149 25.9817 7.56579 26.6122 7.56579 27.2697C7.56579 27.9272 7.83149 28.5578 8.30445 29.0227C8.7774 29.4876 9.41886 29.7488 10.0877 29.7488C10.7566 29.7488 11.398 29.4876 11.871 29.0227C12.3439 28.5578 12.6096 27.9272 12.6096 27.2697ZM32.7851 27.2697C32.7851 26.6122 32.5194 25.9817 32.0464 25.5168C31.5735 25.0519 30.932 24.7907 30.2632 24.7907C29.5943 24.7907 28.9528 25.0519 28.4799 25.5168C28.0069 25.9817 27.7412 26.6122 27.7412 27.2697C27.7412 27.9272 28.0069 28.5578 28.4799 29.0227C28.9528 29.4876 29.5943 29.7488 30.2632 29.7488C30.932 29.7488 31.5735 29.4876 32.0464 29.0227C32.5194 28.5578 32.7851 27.9272 32.7851 27.2697ZM15.1316 27.2697C15.1316 27.9272 15.3973 28.5578 15.8702 29.0227C16.3432 29.4876 16.9847 29.7488 17.6535 29.7488H22.6974C23.3662 29.7488 24.0077 29.4876 24.4806 29.0227C24.9536 28.5578 25.2193 27.9272 25.2193 27.2697C25.2193 26.6122 24.9536 25.9817 24.4806 25.5168C24.0077 25.0519 23.3662 24.7907 22.6974 24.7907H17.6535C16.9847 24.7907 16.3432 25.0519 15.8702 25.5168C15.3973 25.9817 15.1316 26.6122 15.1316 27.2697Z" fill="#284327"/>
</g>
<defs>
<clipPath id="clip0_365_2069">
<rect width="40.3509" height="39.6648" fill="white"/>
</clipPath>
</defs>
</svg>
