<svg width="24" height="22" viewBox="0 0 24 22" fill="none" xmlns="http://www.w3.org/2000/svg">
<path fill-rule="evenodd" clip-rule="evenodd" d="M13.4325 0.491619C13.0229 0.172992 12.5187 0 11.9998 0C11.4809 0 10.9767 0.172992 10.5671 0.491619L0.785796 8.09829C-0.0915378 8.78312 0.391462 10.189 1.5033 10.189H2.7773L3.73396 19.7545C3.79154 20.3302 4.06098 20.864 4.49 21.2523C4.91902 21.6406 5.477 21.8556 6.05563 21.8556H17.944C18.5226 21.8556 19.0806 21.6406 19.5096 21.2523C19.9386 20.864 20.2081 20.3302 20.2656 19.7545L21.2223 10.189H22.4963C23.607 10.189 24.0923 8.78312 23.2138 8.09945L13.4325 0.491619ZM11.9998 16.0223C12.9281 16.0223 13.8183 15.6535 14.4747 14.9972C15.131 14.3408 15.4998 13.4505 15.4998 12.5223C15.4998 11.594 15.131 10.7038 14.4747 10.0474C13.8183 9.39104 12.9281 9.02229 11.9998 9.02229C11.0715 9.02229 10.1813 9.39104 9.52492 10.0474C8.86855 10.7038 8.4998 11.594 8.4998 12.5223C8.4998 13.4505 8.86855 14.3408 9.52492 14.9972C10.1813 15.6535 11.0715 16.0223 11.9998 16.0223Z" fill="#284327"/>
</svg>
