<svg width="16" height="19" viewBox="0 0 16 19" fill="none" xmlns="http://www.w3.org/2000/svg">
<path d="M15.6667 3.00974L15.6667 15.9906C15.6675 16.503 15.5113 17.0052 15.2164 17.439C14.9214 17.8729 14.4997 18.2205 14 18.4418C13.4071 18.7009 12.7474 18.8006 12.0962 18.7298C11.445 18.6589 10.8284 18.4202 10.3167 18.041L1.81665 11.5506C1.49894 11.2959 1.24413 10.981 1.06949 10.6272C0.894855 10.2734 0.804474 9.88906 0.804474 9.50015C0.804474 9.11125 0.894855 8.72689 1.06949 8.37312C1.24413 8.01935 1.49894 7.70444 1.81665 7.44974L10.3167 0.959317C10.8284 0.580058 11.445 0.341395 12.0962 0.270526C12.7474 0.199658 13.4071 0.299436 14 0.558486C14.4997 0.77978 14.9214 1.12745 15.2164 1.56126C15.5113 1.99506 15.6675 2.49727 15.6667 3.00974Z" fill="#433B3C"/>
</svg>
