<svg width="15" height="19" viewBox="0 0 15 19" fill="none" xmlns="http://www.w3.org/2000/svg">
<path d="M-2.38595e-05 15.9903L-2.32552e-05 3.00943C-0.000805354 2.49696 0.151403 1.99476 0.438985 1.56095C0.726567 1.12715 1.13776 0.779474 1.62498 0.55818C2.20306 0.29913 2.84622 0.199354 3.48116 0.270223C4.11611 0.341092 4.7173 0.579755 5.21623 0.959014L13.5037 7.44943C13.8135 7.70414 14.0619 8.01905 14.2322 8.37282C14.4025 8.72658 14.4906 9.11094 14.4906 9.49985C14.4906 9.88875 14.4025 10.2731 14.2322 10.6269C14.0619 10.9806 13.8135 11.2956 13.5037 11.5503L5.21623 18.0407C4.7173 18.4199 4.11611 18.6586 3.48116 18.7295C2.84622 18.8003 2.20306 18.7006 1.62498 18.4415C1.13776 18.2202 0.726566 17.8725 0.438984 17.4387C0.151402 17.0049 -0.000806006 16.5027 -2.38595e-05 15.9903Z" fill="#433B3C"/>
</svg>
